<svg width="275" height="496" viewBox="0 0 275 496" fill="none" xmlns="http://www.w3.org/2000/svg">
<path fill-rule="evenodd" clip-rule="evenodd" d="M40.0299 1.57517C89.5574 18.5255 62.7359 105.032 94.1661 146.894C108.103 165.456 138.992 155.609 161.067 162.785C200.147 175.49 274.388 164.59 274.996 205.679C275.688 252.49 192.955 251.452 162.909 287.355C149.154 303.792 155.715 328.857 154.033 350.223C150.523 394.811 177.986 449.795 147.541 482.558C122.737 509.251 72.9932 488.438 40.0299 472.909C9.63504 458.59 1.53043 416.524 -27.7205 399.994C-54.2813 384.984 -97.3285 407.865 -116.73 384.32C-135.996 360.939 -115.718 324.87 -114.569 294.595C-113.676 271.052 -117.102 247.578 -110.681 224.91C-104.419 202.802 -89.9599 184.816 -77.9297 165.239C-64.5447 143.458 -50.4206 123.265 -35.4728 102.526C-10.5913 68.0038 -0.231735 -12.204 40.0299 1.57517Z" fill="url(#paint0_linear_15_95)"/>
<defs>
<linearGradient id="paint0_linear_15_95" x1="-125" y1="247.695" x2="275" y2="247.695" gradientUnits="userSpaceOnUse">
<stop stop-color="#141E30"/>
<stop offset="1" stop-color="#243B55"/>
</linearGradient>
</defs>
</svg>
