<svg width="273" height="506" viewBox="0 0 273 506" fill="none" xmlns="http://www.w3.org/2000/svg">
<path fill-rule="evenodd" clip-rule="evenodd" d="M196.118 6.33438C249.077 -18.9016 319.15 36.0625 348.674 86.6674C377.897 136.756 319.697 203.507 342.302 256.895C363.752 307.556 457.404 307.684 465.301 362.113C472.474 411.561 423.224 466.816 374.315 477.551C319.964 489.481 278.048 406.313 223.127 415.27C179.15 422.442 183.867 511.605 139.509 515.846C102.65 519.37 91.765 461.667 73.4062 429.585C58.2548 403.107 52.3555 374.311 42.0859 345.596C28.806 308.463 -13.311 271.401 4.19343 236.054C21.89 200.319 89.6415 228.53 115.221 197.913C160.612 143.584 132.148 36.8175 196.118 6.33438Z" fill="url(#paint0_linear_15_96)"/>
<defs>
<linearGradient id="paint0_linear_15_96" x1="0" y1="258" x2="466" y2="258" gradientUnits="userSpaceOnUse">
<stop stop-color="#485563"/>
<stop offset="1" stop-color="#29323C"/>
</linearGradient>
</defs>
</svg>
