<svg width="1550" height="850" viewBox="0 0 1000 450" fill="none" xmlns="http://www.w3.org/2000/svg">
<g clip-path="url(#clip0_22_8)">
<path d="M1440 -203H0V623H1440V-203Z" fill="white"/>
<path d="M0 217.408L60 215.278C120 213.056 240 208.796 360 212.5C480 216.204 600 227.872 720 229.724C840 231.576 960 223.612 1080 212.315C1200 201.018 1320 186.572 1380 179.257L1440 172.034V623.926H1380C1320 623.926 1200 623.926 1080 623.926C960 623.926 840 623.926 720 623.926C600 623.926 480 623.926 360 623.926C240 623.926 120 623.926 60 623.926H0V217.408Z" fill="#58E186"/>
</g>
<defs>
<clipPath id="clip0_22_8">
<rect width="1440" height="624" fill="white"/>
</clipPath>
</defs>
</svg>
